<?xml version="1.0" encoding="utf-8"?>
<!-- Generator: Adobe Illustrator 17.1.0, SVG Export Plug-In . SVG Version: 6.00 Build 0)  -->
<!DOCTYPE svg PUBLIC "-//W3C//DTD SVG 1.1//EN" "http://www.w3.org/Graphics/SVG/1.1/DTD/svg11.dtd">
<svg version="1.1" id="Layer_1" xmlns="http://www.w3.org/2000/svg" xmlns:xlink="http://www.w3.org/1999/xlink" x="0px" y="0px"
	 viewBox="0 0 350 70" enable-background="new 0 0 350 70" xml:space="preserve">
<path fill="#FFFFFF" d="M216.6,69.1h-7.1L196,32.8h9.5l7.4,22.5l7.3-22.5h9.5L216.6,69.1z"/>
<path fill="#FFFFFF" d="M237,28.2c-3.1,0-5.8-2.6-5.8-5.8s2.6-5.7,5.8-5.7c3.2,0,5.7,2.5,5.7,5.7C242.7,25.7,240.1,28.2,237,28.2z
	 M232.4,69.1V32.8h9.1v36.3H232.4L232.4,69.1z"/>
<path fill="#FFFFFF" d="M268.7,36c0-0.9,0-16.5,0-16.5h9.1v49.6h-8.9v-3.4c-2.5,2.8-5.1,3.9-9,3.9c-6.7,0-13.4-3.1-12.6-18.6
	c0.2-3.9-0.3-11.5,3.7-15.3C255.6,31.3,264.8,31.2,268.7,36z M262.5,40.5c-5.4,0-6.1,4.5-6.1,10.4s0.7,10.4,6.1,10.4
	c5.4,0,6.2-4.5,6.2-10.4S267.9,40.5,262.5,40.5z"/>
<path fill="#FFFFFF" d="M292.3,53.7c0,4.7,2.9,8.1,7.9,8.1c4,0,5.9-1.1,8.2-3.4l5.5,5.4c-3.7,3.7-7.3,5.8-13.8,5.8
	c-8.6,0-16.8-3.9-16.8-18.6c0-11.9,6.4-18.5,15.8-18.5c10.1,0,15.8,7.4,15.8,17.3v4H292.3z M292.3,47.5c1,0,13.8,0,13.8,0
	c-0.1-1.6-0.7-7.6-6.9-7.6C296.2,39.9,292.3,41.8,292.3,47.5z"/>
<path fill="#FFFFFF" d="M334.4,69.6c-6.1,0-15.4-2.3-15.4-18.6c0-13.2,5.7-18.5,15.4-18.5c13.8,0,15.4,11.7,15.4,18.5
	C349.8,62.1,345.8,69.6,334.4,69.6z M334.4,40.5c-6.1,0-6.3,6.7-6.3,10.4c0,10.7,4.5,10.4,6.3,10.4s6.4,0.2,6.4-10.4
	C340.8,47.2,340.8,40.5,334.4,40.5z"/>
<polygon fill="#D52B1E" points="163.7,32.4 185.6,10.5 179.9,4.6 157.9,26.7 "/>
<rect x="140.1" y="0.1" fill="#D52B1E" width="8.1" height="23.5"/>
<rect x="167.7" y="41.5" fill="#D52B1E" width="24.1" height="8.2"/>
<path fill="#D52B1E" d="M143.1,60.3c-4.6,0-10-3.6-10-10.1c0-3.5,2.5-10.1,10-10.1c6.2,0,10.1,4.9,10.1,10.1
	C153.1,56.7,147.8,60.3,143.1,60.3z M162.1,50.2c0-11.3-9.2-19.1-19-19.1c-11.3,0-18.9,9.5-18.9,19.1c0,11.1,9.2,19.1,18.9,19.1
	C152.9,69.3,162.1,61.5,162.1,50.2z"/>
<path fill="#D52B1E" d="M23.5,21.7C8.9,21.7,0,33.5,0,45.3C0,59.7,11.7,69,23.5,69c10.9,0,20-7.5,22.5-17.3h-9.5
	C35.2,54,31.2,60,23.5,60C16.6,60,9,54.7,9,45.3c0-7.4,5.4-14.6,14.5-14.6c7.8,0,11.4,5.6,12.9,8.4h9.5
	C44.5,32.6,37.2,21.7,23.5,21.7z"/>
<path fill="#D52B1E" d="M85,51.5l1.7-1v3.7c0,3.2-0.9,5.4-2.5,6.6c-1.7,1.2-3.6,1.8-5.7,1.8c-1.3,0-4.5-0.4-4.5-4.6
	c0-1.8,0.7-4.7,6.5-5.4L85,51.5z M81.1,30.9c-13.7,0-15,8-15.5,12.8h9.1c0.4-2.1,1.1-5.1,6.1-5.1c5.8,0,6.1,2.5,6.1,3.9
	c0,1.3-1.2,2.6-2.3,2.8c-8.9,1.4-11.8,1.8-14.7,3.5c-3.4,2-5,5.2-5,9.9c0,9.1,7.4,10.2,10.5,10.3c5-0.1,8.9-1.3,11.7-3.8V69h9.1
	V42.3C96.2,34.8,91.1,30.9,81.1,30.9"/>
<rect x="50.5" y="21.7" fill="#D52B1E" width="9.1" height="47.4"/>
<path fill="#D52B1E" d="M111,37.4v-4.6l-8.6-0.1v36.4h9V51.7c0-3,0.4-5.1,1.1-6.4c0.6-1.4,3.6-5.1,8.1-5.1l2.8,0.2
	c0,0-0.1-8.6-0.1-9.3C117.7,31.3,113.8,33.6,111,37.4z"/>
</svg>
